<mxfile host="app.diagrams.net" agent="Mozilla/5.0 (Windows NT 10.0; Win64; x64) AppleWebKit/537.36 (KHTML, like Gecko) Chrome/131.0.0.0 Safari/537.36" version="24.9.2">
  <diagram name="Страница — 1" id="RjDKxzOwE1cn85HmaROs">
    <mxGraphModel dx="2118" dy="1710" grid="0" gridSize="10" guides="1" tooltips="1" connect="1" arrows="1" fold="1" page="0" pageScale="1" pageWidth="827" pageHeight="1169" math="0" shadow="0">
      <root>
        <mxCell id="0" />
        <mxCell id="1" parent="0" />
        <mxCell id="TJB5VOWsFreeemDdmijg-93" value="Элшатұлы Нұрсұлтан" style="shape=rect;rounded=1;html=1;whiteSpace=wrap;align=center;" parent="1" vertex="1">
          <mxGeometry x="840" y="-34" width="114" height="40" as="geometry" />
        </mxCell>
        <mxCell id="TJB5VOWsFreeemDdmijg-99" style="edgeStyle=elbowEdgeStyle;curved=0;rounded=0;orthogonalLoop=1;jettySize=auto;html=1;elbow=vertical;fontSize=12;startSize=8;endSize=8;" parent="1" source="TJB5VOWsFreeemDdmijg-95" target="TJB5VOWsFreeemDdmijg-96" edge="1">
          <mxGeometry relative="1" as="geometry">
            <Array as="points">
              <mxPoint x="772" y="115" />
            </Array>
          </mxGeometry>
        </mxCell>
        <mxCell id="TJB5VOWsFreeemDdmijg-101" value="Выбор товара" style="edgeLabel;html=1;align=center;verticalAlign=middle;resizable=0;points=[];fontSize=12;" parent="TJB5VOWsFreeemDdmijg-99" vertex="1" connectable="0">
          <mxGeometry x="0.1838" y="-3" relative="1" as="geometry">
            <mxPoint x="-14" y="-3" as="offset" />
          </mxGeometry>
        </mxCell>
        <mxCell id="TJB5VOWsFreeemDdmijg-112" style="edgeStyle=elbowEdgeStyle;curved=0;rounded=0;orthogonalLoop=1;jettySize=auto;html=1;elbow=vertical;fontSize=12;startSize=8;endSize=8;" parent="1" source="TJB5VOWsFreeemDdmijg-95" target="TJB5VOWsFreeemDdmijg-96" edge="1">
          <mxGeometry relative="1" as="geometry">
            <Array as="points">
              <mxPoint x="779" y="329" />
            </Array>
          </mxGeometry>
        </mxCell>
        <mxCell id="TJB5VOWsFreeemDdmijg-113" value="Выбор&lt;div&gt;способа&lt;/div&gt;&lt;div&gt;оплаты&lt;/div&gt;" style="edgeLabel;html=1;align=center;verticalAlign=middle;resizable=0;points=[];fontSize=12;" parent="TJB5VOWsFreeemDdmijg-112" vertex="1" connectable="0">
          <mxGeometry x="-0.5511" y="1" relative="1" as="geometry">
            <mxPoint x="33" y="5" as="offset" />
          </mxGeometry>
        </mxCell>
        <mxCell id="TJB5VOWsFreeemDdmijg-95" value="Пользователь" style="shape=umlLifeline;perimeter=lifelinePerimeter;whiteSpace=wrap;html=1;container=1;dropTarget=0;collapsible=0;recursiveResize=0;outlineConnect=0;portConstraint=eastwest;newEdgeStyle={&quot;edgeStyle&quot;:&quot;elbowEdgeStyle&quot;,&quot;elbow&quot;:&quot;vertical&quot;,&quot;curved&quot;:0,&quot;rounded&quot;:0};" parent="1" vertex="1">
          <mxGeometry x="667" y="22" width="100" height="644" as="geometry" />
        </mxCell>
        <mxCell id="TJB5VOWsFreeemDdmijg-106" style="edgeStyle=elbowEdgeStyle;curved=0;rounded=0;orthogonalLoop=1;jettySize=auto;html=1;elbow=vertical;fontSize=12;startSize=8;endSize=8;" parent="1" source="TJB5VOWsFreeemDdmijg-96" target="TJB5VOWsFreeemDdmijg-98" edge="1">
          <mxGeometry relative="1" as="geometry">
            <Array as="points">
              <mxPoint x="952" y="211" />
            </Array>
          </mxGeometry>
        </mxCell>
        <mxCell id="TJB5VOWsFreeemDdmijg-107" value="Проверка&lt;div&gt;доступности&lt;/div&gt;&lt;div&gt;товаров&lt;/div&gt;" style="edgeLabel;html=1;align=center;verticalAlign=middle;resizable=0;points=[];fontSize=12;" parent="TJB5VOWsFreeemDdmijg-106" vertex="1" connectable="0">
          <mxGeometry x="-0.4347" relative="1" as="geometry">
            <mxPoint x="-10" y="-1" as="offset" />
          </mxGeometry>
        </mxCell>
        <mxCell id="TJB5VOWsFreeemDdmijg-110" style="edgeStyle=elbowEdgeStyle;curved=0;rounded=0;orthogonalLoop=1;jettySize=auto;html=1;elbow=vertical;fontSize=12;startSize=8;endSize=8;" parent="1" source="TJB5VOWsFreeemDdmijg-96" target="TJB5VOWsFreeemDdmijg-95" edge="1">
          <mxGeometry relative="1" as="geometry">
            <Array as="points">
              <mxPoint x="773" y="289" />
            </Array>
          </mxGeometry>
        </mxCell>
        <mxCell id="TJB5VOWsFreeemDdmijg-111" value="Уведомление&lt;div&gt;о доступности&lt;/div&gt;" style="edgeLabel;html=1;align=center;verticalAlign=middle;resizable=0;points=[];fontSize=12;" parent="TJB5VOWsFreeemDdmijg-110" vertex="1" connectable="0">
          <mxGeometry x="0.2541" y="-2" relative="1" as="geometry">
            <mxPoint x="19" y="1" as="offset" />
          </mxGeometry>
        </mxCell>
        <mxCell id="TJB5VOWsFreeemDdmijg-114" style="edgeStyle=elbowEdgeStyle;curved=0;rounded=0;orthogonalLoop=1;jettySize=auto;html=1;elbow=horizontal;fontSize=12;startSize=8;endSize=8;" parent="1" source="TJB5VOWsFreeemDdmijg-96" target="TJB5VOWsFreeemDdmijg-97" edge="1">
          <mxGeometry relative="1" as="geometry">
            <Array as="points">
              <mxPoint x="891" y="355" />
            </Array>
          </mxGeometry>
        </mxCell>
        <mxCell id="TJB5VOWsFreeemDdmijg-115" value="Отправка&lt;div&gt;данных для&lt;/div&gt;&lt;div&gt;оплаты&lt;/div&gt;" style="edgeLabel;html=1;align=center;verticalAlign=middle;resizable=0;points=[];fontSize=12;" parent="TJB5VOWsFreeemDdmijg-114" vertex="1" connectable="0">
          <mxGeometry x="-0.269" y="1" relative="1" as="geometry">
            <mxPoint x="19" as="offset" />
          </mxGeometry>
        </mxCell>
        <mxCell id="TJB5VOWsFreeemDdmijg-118" style="edgeStyle=elbowEdgeStyle;curved=0;rounded=0;orthogonalLoop=1;jettySize=auto;html=1;elbow=vertical;fontSize=12;startSize=8;endSize=8;" parent="1" source="TJB5VOWsFreeemDdmijg-96" target="TJB5VOWsFreeemDdmijg-95" edge="1">
          <mxGeometry relative="1" as="geometry">
            <Array as="points">
              <mxPoint x="780" y="417" />
            </Array>
          </mxGeometry>
        </mxCell>
        <mxCell id="TJB5VOWsFreeemDdmijg-119" value="Уведомление&lt;div&gt;об оплате&lt;/div&gt;" style="edgeLabel;html=1;align=center;verticalAlign=middle;resizable=0;points=[];fontSize=12;" parent="TJB5VOWsFreeemDdmijg-118" vertex="1" connectable="0">
          <mxGeometry x="0.1273" y="-2" relative="1" as="geometry">
            <mxPoint x="10" y="1" as="offset" />
          </mxGeometry>
        </mxCell>
        <mxCell id="TJB5VOWsFreeemDdmijg-120" style="edgeStyle=elbowEdgeStyle;curved=0;rounded=0;orthogonalLoop=1;jettySize=auto;html=1;elbow=vertical;fontSize=12;startSize=8;endSize=8;" parent="1" source="TJB5VOWsFreeemDdmijg-96" target="TJB5VOWsFreeemDdmijg-98" edge="1">
          <mxGeometry relative="1" as="geometry">
            <Array as="points">
              <mxPoint x="973" y="436" />
            </Array>
          </mxGeometry>
        </mxCell>
        <mxCell id="TJB5VOWsFreeemDdmijg-121" value="Запрос на&lt;div&gt;сборку заказа&lt;/div&gt;" style="edgeLabel;html=1;align=center;verticalAlign=middle;resizable=0;points=[];fontSize=12;" parent="TJB5VOWsFreeemDdmijg-120" vertex="1" connectable="0">
          <mxGeometry x="-0.4436" relative="1" as="geometry">
            <mxPoint x="-6" as="offset" />
          </mxGeometry>
        </mxCell>
        <mxCell id="TJB5VOWsFreeemDdmijg-124" style="edgeStyle=elbowEdgeStyle;curved=0;rounded=0;orthogonalLoop=1;jettySize=auto;html=1;elbow=vertical;fontSize=12;startSize=8;endSize=8;" parent="1" source="TJB5VOWsFreeemDdmijg-96" target="TJB5VOWsFreeemDdmijg-95" edge="1">
          <mxGeometry relative="1" as="geometry">
            <Array as="points">
              <mxPoint x="777" y="506" />
            </Array>
          </mxGeometry>
        </mxCell>
        <mxCell id="TJB5VOWsFreeemDdmijg-125" value="Уведомление&lt;div&gt;о завершении&lt;/div&gt;&lt;div&gt;заказа&lt;/div&gt;" style="edgeLabel;html=1;align=center;verticalAlign=middle;resizable=0;points=[];fontSize=12;" parent="TJB5VOWsFreeemDdmijg-124" vertex="1" connectable="0">
          <mxGeometry x="0.3825" y="-1" relative="1" as="geometry">
            <mxPoint x="26" y="2" as="offset" />
          </mxGeometry>
        </mxCell>
        <mxCell id="TJB5VOWsFreeemDdmijg-96" value="Система" style="shape=umlLifeline;perimeter=lifelinePerimeter;whiteSpace=wrap;html=1;container=1;dropTarget=0;collapsible=0;recursiveResize=0;outlineConnect=0;portConstraint=eastwest;newEdgeStyle={&quot;edgeStyle&quot;:&quot;elbowEdgeStyle&quot;,&quot;elbow&quot;:&quot;vertical&quot;,&quot;curved&quot;:0,&quot;rounded&quot;:0};" parent="1" vertex="1">
          <mxGeometry x="787" y="22" width="100" height="649" as="geometry" />
        </mxCell>
        <mxCell id="TJB5VOWsFreeemDdmijg-116" style="edgeStyle=elbowEdgeStyle;curved=0;rounded=0;orthogonalLoop=1;jettySize=auto;html=1;elbow=vertical;fontSize=12;startSize=8;endSize=8;" parent="1" source="TJB5VOWsFreeemDdmijg-97" target="TJB5VOWsFreeemDdmijg-96" edge="1">
          <mxGeometry relative="1" as="geometry">
            <Array as="points">
              <mxPoint x="892" y="392" />
            </Array>
          </mxGeometry>
        </mxCell>
        <mxCell id="TJB5VOWsFreeemDdmijg-117" value="Ответ об оплате" style="edgeLabel;html=1;align=center;verticalAlign=middle;resizable=0;points=[];fontSize=12;" parent="TJB5VOWsFreeemDdmijg-116" vertex="1" connectable="0">
          <mxGeometry x="0.2812" y="-3" relative="1" as="geometry">
            <mxPoint x="21" y="3" as="offset" />
          </mxGeometry>
        </mxCell>
        <mxCell id="TJB5VOWsFreeemDdmijg-97" value="Платежный&lt;div&gt;шлюз&lt;/div&gt;" style="shape=umlLifeline;perimeter=lifelinePerimeter;whiteSpace=wrap;html=1;container=1;dropTarget=0;collapsible=0;recursiveResize=0;outlineConnect=0;portConstraint=eastwest;newEdgeStyle={&quot;edgeStyle&quot;:&quot;elbowEdgeStyle&quot;,&quot;elbow&quot;:&quot;vertical&quot;,&quot;curved&quot;:0,&quot;rounded&quot;:0};" parent="1" vertex="1">
          <mxGeometry x="900" y="22" width="100" height="641" as="geometry" />
        </mxCell>
        <mxCell id="TJB5VOWsFreeemDdmijg-108" style="edgeStyle=elbowEdgeStyle;curved=0;rounded=0;orthogonalLoop=1;jettySize=auto;html=1;elbow=vertical;fontSize=12;startSize=8;endSize=8;" parent="1" source="TJB5VOWsFreeemDdmijg-98" target="TJB5VOWsFreeemDdmijg-96" edge="1">
          <mxGeometry relative="1" as="geometry">
            <Array as="points">
              <mxPoint x="943" y="258" />
            </Array>
          </mxGeometry>
        </mxCell>
        <mxCell id="TJB5VOWsFreeemDdmijg-109" value="Ответ о&lt;div&gt;доступности&lt;/div&gt;" style="edgeLabel;html=1;align=center;verticalAlign=middle;resizable=0;points=[];fontSize=12;" parent="TJB5VOWsFreeemDdmijg-108" vertex="1" connectable="0">
          <mxGeometry x="-0.6027" y="2" relative="1" as="geometry">
            <mxPoint x="-8" as="offset" />
          </mxGeometry>
        </mxCell>
        <mxCell id="TJB5VOWsFreeemDdmijg-122" style="edgeStyle=elbowEdgeStyle;curved=0;rounded=0;orthogonalLoop=1;jettySize=auto;html=1;elbow=vertical;fontSize=12;startSize=8;endSize=8;" parent="1" source="TJB5VOWsFreeemDdmijg-98" target="TJB5VOWsFreeemDdmijg-96" edge="1">
          <mxGeometry relative="1" as="geometry">
            <Array as="points">
              <mxPoint x="942" y="478" />
            </Array>
          </mxGeometry>
        </mxCell>
        <mxCell id="TJB5VOWsFreeemDdmijg-123" value="Уведомление&lt;div&gt;о готовности&lt;/div&gt;" style="edgeLabel;html=1;align=center;verticalAlign=middle;resizable=0;points=[];fontSize=12;" parent="TJB5VOWsFreeemDdmijg-122" vertex="1" connectable="0">
          <mxGeometry x="-0.445" y="-3" relative="1" as="geometry">
            <mxPoint x="11" y="2" as="offset" />
          </mxGeometry>
        </mxCell>
        <mxCell id="TJB5VOWsFreeemDdmijg-98" value="Склад" style="shape=umlLifeline;perimeter=lifelinePerimeter;whiteSpace=wrap;html=1;container=1;dropTarget=0;collapsible=0;recursiveResize=0;outlineConnect=0;portConstraint=eastwest;newEdgeStyle={&quot;edgeStyle&quot;:&quot;elbowEdgeStyle&quot;,&quot;elbow&quot;:&quot;vertical&quot;,&quot;curved&quot;:0,&quot;rounded&quot;:0};" parent="1" vertex="1">
          <mxGeometry x="1016" y="22" width="100" height="621" as="geometry" />
        </mxCell>
        <mxCell id="TJB5VOWsFreeemDdmijg-102" style="edgeStyle=elbowEdgeStyle;curved=0;rounded=0;orthogonalLoop=1;jettySize=auto;html=1;elbow=vertical;fontSize=12;startSize=8;endSize=8;" parent="1" edge="1">
          <mxGeometry relative="1" as="geometry">
            <mxPoint x="717" y="141.16" as="sourcePoint" />
            <mxPoint x="837" y="141.16" as="targetPoint" />
            <Array as="points">
              <mxPoint x="772" y="141.16" />
            </Array>
          </mxGeometry>
        </mxCell>
        <mxCell id="TJB5VOWsFreeemDdmijg-103" value="Добавление&lt;div&gt;в корзину&lt;/div&gt;" style="edgeLabel;html=1;align=center;verticalAlign=middle;resizable=0;points=[];fontSize=12;" parent="TJB5VOWsFreeemDdmijg-102" vertex="1" connectable="0">
          <mxGeometry x="0.1838" y="-3" relative="1" as="geometry">
            <mxPoint x="-15" y="-3" as="offset" />
          </mxGeometry>
        </mxCell>
        <mxCell id="TJB5VOWsFreeemDdmijg-104" style="edgeStyle=elbowEdgeStyle;curved=0;rounded=0;orthogonalLoop=1;jettySize=auto;html=1;elbow=vertical;fontSize=12;startSize=8;endSize=8;" parent="1" edge="1">
          <mxGeometry relative="1" as="geometry">
            <mxPoint x="718" y="178" as="sourcePoint" />
            <mxPoint x="838" y="178" as="targetPoint" />
            <Array as="points">
              <mxPoint x="773" y="178" />
            </Array>
          </mxGeometry>
        </mxCell>
        <mxCell id="TJB5VOWsFreeemDdmijg-105" value="Подтверждение&lt;div&gt;заказа&lt;/div&gt;" style="edgeLabel;html=1;align=center;verticalAlign=middle;resizable=0;points=[];fontSize=12;" parent="TJB5VOWsFreeemDdmijg-104" vertex="1" connectable="0">
          <mxGeometry x="0.1838" y="-3" relative="1" as="geometry">
            <mxPoint x="-15" y="-4" as="offset" />
          </mxGeometry>
        </mxCell>
        <mxCell id="riqvc8VG6ETdzrD3-sAb-1" style="edgeStyle=elbowEdgeStyle;curved=0;rounded=0;orthogonalLoop=1;jettySize=auto;html=1;elbow=vertical;fontSize=12;startSize=8;endSize=8;" edge="1" source="riqvc8VG6ETdzrD3-sAb-5" target="riqvc8VG6ETdzrD3-sAb-18" parent="1">
          <mxGeometry relative="1" as="geometry">
            <Array as="points">
              <mxPoint x="1385" y="120" />
            </Array>
          </mxGeometry>
        </mxCell>
        <mxCell id="riqvc8VG6ETdzrD3-sAb-2" value="Выбор товара" style="edgeLabel;html=1;align=center;verticalAlign=middle;resizable=0;points=[];fontSize=12;" vertex="1" connectable="0" parent="riqvc8VG6ETdzrD3-sAb-1">
          <mxGeometry x="0.1838" y="-3" relative="1" as="geometry">
            <mxPoint x="-14" y="-3" as="offset" />
          </mxGeometry>
        </mxCell>
        <mxCell id="riqvc8VG6ETdzrD3-sAb-3" style="edgeStyle=elbowEdgeStyle;curved=0;rounded=0;orthogonalLoop=1;jettySize=auto;html=1;elbow=vertical;fontSize=12;startSize=8;endSize=8;" edge="1" source="riqvc8VG6ETdzrD3-sAb-5" target="riqvc8VG6ETdzrD3-sAb-18" parent="1">
          <mxGeometry relative="1" as="geometry">
            <Array as="points">
              <mxPoint x="1392" y="334" />
            </Array>
          </mxGeometry>
        </mxCell>
        <mxCell id="riqvc8VG6ETdzrD3-sAb-4" value="Выбор&lt;div&gt;способа&lt;/div&gt;&lt;div&gt;оплаты&lt;/div&gt;" style="edgeLabel;html=1;align=center;verticalAlign=middle;resizable=0;points=[];fontSize=12;" vertex="1" connectable="0" parent="riqvc8VG6ETdzrD3-sAb-3">
          <mxGeometry x="-0.5511" y="1" relative="1" as="geometry">
            <mxPoint x="33" y="5" as="offset" />
          </mxGeometry>
        </mxCell>
        <mxCell id="riqvc8VG6ETdzrD3-sAb-5" value="Пользователь" style="shape=umlLifeline;perimeter=lifelinePerimeter;whiteSpace=wrap;html=1;container=1;dropTarget=0;collapsible=0;recursiveResize=0;outlineConnect=0;portConstraint=eastwest;newEdgeStyle={&quot;edgeStyle&quot;:&quot;elbowEdgeStyle&quot;,&quot;elbow&quot;:&quot;vertical&quot;,&quot;curved&quot;:0,&quot;rounded&quot;:0};" vertex="1" parent="1">
          <mxGeometry x="1280" y="27" width="100" height="644" as="geometry" />
        </mxCell>
        <mxCell id="riqvc8VG6ETdzrD3-sAb-6" style="edgeStyle=elbowEdgeStyle;curved=0;rounded=0;orthogonalLoop=1;jettySize=auto;html=1;elbow=vertical;fontSize=12;startSize=8;endSize=8;" edge="1" source="riqvc8VG6ETdzrD3-sAb-18" target="riqvc8VG6ETdzrD3-sAb-26" parent="1">
          <mxGeometry relative="1" as="geometry">
            <Array as="points">
              <mxPoint x="1508" y="210" />
            </Array>
          </mxGeometry>
        </mxCell>
        <mxCell id="riqvc8VG6ETdzrD3-sAb-7" value="Проверка&lt;div&gt;доступности&lt;/div&gt;&lt;div&gt;товаров&lt;/div&gt;" style="edgeLabel;html=1;align=center;verticalAlign=middle;resizable=0;points=[];fontSize=12;" vertex="1" connectable="0" parent="riqvc8VG6ETdzrD3-sAb-6">
          <mxGeometry x="-0.4347" relative="1" as="geometry">
            <mxPoint x="16" y="1" as="offset" />
          </mxGeometry>
        </mxCell>
        <mxCell id="riqvc8VG6ETdzrD3-sAb-8" style="edgeStyle=elbowEdgeStyle;curved=0;rounded=0;orthogonalLoop=1;jettySize=auto;html=1;elbow=vertical;fontSize=12;startSize=8;endSize=8;" edge="1" source="riqvc8VG6ETdzrD3-sAb-18" target="riqvc8VG6ETdzrD3-sAb-5" parent="1">
          <mxGeometry relative="1" as="geometry">
            <Array as="points">
              <mxPoint x="1386" y="294" />
            </Array>
          </mxGeometry>
        </mxCell>
        <mxCell id="riqvc8VG6ETdzrD3-sAb-9" value="Уведомление&lt;div&gt;о доступности&lt;/div&gt;" style="edgeLabel;html=1;align=center;verticalAlign=middle;resizable=0;points=[];fontSize=12;" vertex="1" connectable="0" parent="riqvc8VG6ETdzrD3-sAb-8">
          <mxGeometry x="0.2541" y="-2" relative="1" as="geometry">
            <mxPoint x="19" y="1" as="offset" />
          </mxGeometry>
        </mxCell>
        <mxCell id="riqvc8VG6ETdzrD3-sAb-10" style="edgeStyle=elbowEdgeStyle;curved=0;rounded=0;orthogonalLoop=1;jettySize=auto;html=1;elbow=horizontal;fontSize=12;startSize=8;endSize=8;" edge="1" parent="1">
          <mxGeometry relative="1" as="geometry">
            <Array as="points">
              <mxPoint x="1504" y="338" />
            </Array>
            <mxPoint x="1450.0276190476193" y="357" as="sourcePoint" />
            <mxPoint x="1695.98" y="357" as="targetPoint" />
          </mxGeometry>
        </mxCell>
        <mxCell id="riqvc8VG6ETdzrD3-sAb-11" value="Отправка&lt;div&gt;данных для&lt;/div&gt;&lt;div&gt;оплаты&lt;/div&gt;" style="edgeLabel;html=1;align=center;verticalAlign=middle;resizable=0;points=[];fontSize=12;" vertex="1" connectable="0" parent="riqvc8VG6ETdzrD3-sAb-10">
          <mxGeometry x="-0.269" y="1" relative="1" as="geometry">
            <mxPoint x="-22" y="3" as="offset" />
          </mxGeometry>
        </mxCell>
        <mxCell id="riqvc8VG6ETdzrD3-sAb-12" style="edgeStyle=elbowEdgeStyle;curved=0;rounded=0;orthogonalLoop=1;jettySize=auto;html=1;elbow=vertical;fontSize=12;startSize=8;endSize=8;" edge="1" source="riqvc8VG6ETdzrD3-sAb-18" target="riqvc8VG6ETdzrD3-sAb-5" parent="1">
          <mxGeometry relative="1" as="geometry">
            <Array as="points">
              <mxPoint x="1393" y="422" />
            </Array>
          </mxGeometry>
        </mxCell>
        <mxCell id="riqvc8VG6ETdzrD3-sAb-13" value="Уведомление&lt;div&gt;об оплате&lt;/div&gt;" style="edgeLabel;html=1;align=center;verticalAlign=middle;resizable=0;points=[];fontSize=12;" vertex="1" connectable="0" parent="riqvc8VG6ETdzrD3-sAb-12">
          <mxGeometry x="0.1273" y="-2" relative="1" as="geometry">
            <mxPoint x="10" y="1" as="offset" />
          </mxGeometry>
        </mxCell>
        <mxCell id="riqvc8VG6ETdzrD3-sAb-14" style="edgeStyle=elbowEdgeStyle;curved=0;rounded=0;orthogonalLoop=1;jettySize=auto;html=1;elbow=vertical;fontSize=12;startSize=8;endSize=8;" edge="1" source="riqvc8VG6ETdzrD3-sAb-18" target="riqvc8VG6ETdzrD3-sAb-26" parent="1">
          <mxGeometry relative="1" as="geometry">
            <Array as="points">
              <mxPoint x="1516" y="442" />
            </Array>
          </mxGeometry>
        </mxCell>
        <mxCell id="riqvc8VG6ETdzrD3-sAb-15" value="Запрос на&lt;div&gt;сборку заказа&lt;/div&gt;" style="edgeLabel;html=1;align=center;verticalAlign=middle;resizable=0;points=[];fontSize=12;" vertex="1" connectable="0" parent="riqvc8VG6ETdzrD3-sAb-14">
          <mxGeometry x="-0.4436" relative="1" as="geometry">
            <mxPoint x="24" y="1" as="offset" />
          </mxGeometry>
        </mxCell>
        <mxCell id="riqvc8VG6ETdzrD3-sAb-16" style="edgeStyle=elbowEdgeStyle;curved=0;rounded=0;orthogonalLoop=1;jettySize=auto;html=1;elbow=vertical;fontSize=12;startSize=8;endSize=8;" edge="1" source="riqvc8VG6ETdzrD3-sAb-18" target="riqvc8VG6ETdzrD3-sAb-5" parent="1">
          <mxGeometry relative="1" as="geometry">
            <Array as="points">
              <mxPoint x="1390" y="511" />
            </Array>
          </mxGeometry>
        </mxCell>
        <mxCell id="riqvc8VG6ETdzrD3-sAb-17" value="Уведомление&lt;div&gt;о завершении&lt;/div&gt;&lt;div&gt;заказа&lt;/div&gt;" style="edgeLabel;html=1;align=center;verticalAlign=middle;resizable=0;points=[];fontSize=12;" vertex="1" connectable="0" parent="riqvc8VG6ETdzrD3-sAb-16">
          <mxGeometry x="0.3825" y="-1" relative="1" as="geometry">
            <mxPoint x="26" y="2" as="offset" />
          </mxGeometry>
        </mxCell>
        <mxCell id="riqvc8VG6ETdzrD3-sAb-18" value="Система" style="shape=umlLifeline;perimeter=lifelinePerimeter;whiteSpace=wrap;html=1;container=1;dropTarget=0;collapsible=0;recursiveResize=0;outlineConnect=0;portConstraint=eastwest;newEdgeStyle={&quot;edgeStyle&quot;:&quot;elbowEdgeStyle&quot;,&quot;elbow&quot;:&quot;vertical&quot;,&quot;curved&quot;:0,&quot;rounded&quot;:0};" vertex="1" parent="1">
          <mxGeometry x="1400" y="27" width="100" height="649" as="geometry" />
        </mxCell>
        <mxCell id="riqvc8VG6ETdzrD3-sAb-19" style="edgeStyle=elbowEdgeStyle;curved=0;rounded=0;orthogonalLoop=1;jettySize=auto;html=1;elbow=vertical;fontSize=12;startSize=8;endSize=8;" edge="1" source="riqvc8VG6ETdzrD3-sAb-21" target="riqvc8VG6ETdzrD3-sAb-18" parent="1">
          <mxGeometry relative="1" as="geometry">
            <Array as="points">
              <mxPoint x="1534" y="392" />
              <mxPoint x="1505" y="471" />
            </Array>
          </mxGeometry>
        </mxCell>
        <mxCell id="riqvc8VG6ETdzrD3-sAb-20" value="Ответ об оплате" style="edgeLabel;html=1;align=center;verticalAlign=middle;resizable=0;points=[];fontSize=12;" vertex="1" connectable="0" parent="riqvc8VG6ETdzrD3-sAb-19">
          <mxGeometry x="0.2812" y="-3" relative="1" as="geometry">
            <mxPoint x="94" y="4" as="offset" />
          </mxGeometry>
        </mxCell>
        <mxCell id="riqvc8VG6ETdzrD3-sAb-21" value="Платежный&lt;div&gt;шлюз&lt;/div&gt;" style="shape=umlLifeline;perimeter=lifelinePerimeter;whiteSpace=wrap;html=1;container=1;dropTarget=0;collapsible=0;recursiveResize=0;outlineConnect=0;portConstraint=eastwest;newEdgeStyle={&quot;edgeStyle&quot;:&quot;elbowEdgeStyle&quot;,&quot;elbow&quot;:&quot;vertical&quot;,&quot;curved&quot;:0,&quot;rounded&quot;:0};" vertex="1" parent="1">
          <mxGeometry x="1646" y="27" width="100" height="641" as="geometry" />
        </mxCell>
        <mxCell id="riqvc8VG6ETdzrD3-sAb-22" style="edgeStyle=elbowEdgeStyle;curved=0;rounded=0;orthogonalLoop=1;jettySize=auto;html=1;elbow=vertical;fontSize=12;startSize=8;endSize=8;" edge="1" source="riqvc8VG6ETdzrD3-sAb-26" target="riqvc8VG6ETdzrD3-sAb-18" parent="1">
          <mxGeometry relative="1" as="geometry">
            <Array as="points">
              <mxPoint x="1516" y="253" />
            </Array>
          </mxGeometry>
        </mxCell>
        <mxCell id="riqvc8VG6ETdzrD3-sAb-23" value="Ответ о&lt;div&gt;доступности&lt;/div&gt;" style="edgeLabel;html=1;align=center;verticalAlign=middle;resizable=0;points=[];fontSize=12;" vertex="1" connectable="0" parent="riqvc8VG6ETdzrD3-sAb-22">
          <mxGeometry x="-0.6027" y="2" relative="1" as="geometry">
            <mxPoint x="-32" as="offset" />
          </mxGeometry>
        </mxCell>
        <mxCell id="riqvc8VG6ETdzrD3-sAb-24" style="edgeStyle=elbowEdgeStyle;curved=0;rounded=0;orthogonalLoop=1;jettySize=auto;html=1;elbow=vertical;fontSize=12;startSize=8;endSize=8;" edge="1" source="riqvc8VG6ETdzrD3-sAb-26" target="riqvc8VG6ETdzrD3-sAb-18" parent="1">
          <mxGeometry relative="1" as="geometry">
            <Array as="points">
              <mxPoint x="1502" y="488" />
            </Array>
          </mxGeometry>
        </mxCell>
        <mxCell id="riqvc8VG6ETdzrD3-sAb-25" value="Уведомление&lt;div&gt;о готовности&lt;/div&gt;" style="edgeLabel;html=1;align=center;verticalAlign=middle;resizable=0;points=[];fontSize=12;" vertex="1" connectable="0" parent="riqvc8VG6ETdzrD3-sAb-24">
          <mxGeometry x="-0.445" y="-3" relative="1" as="geometry">
            <mxPoint x="-35" y="4" as="offset" />
          </mxGeometry>
        </mxCell>
        <mxCell id="riqvc8VG6ETdzrD3-sAb-26" value="Склад" style="shape=umlLifeline;perimeter=lifelinePerimeter;whiteSpace=wrap;html=1;container=1;dropTarget=0;collapsible=0;recursiveResize=0;outlineConnect=0;portConstraint=eastwest;newEdgeStyle={&quot;edgeStyle&quot;:&quot;elbowEdgeStyle&quot;,&quot;elbow&quot;:&quot;vertical&quot;,&quot;curved&quot;:0,&quot;rounded&quot;:0};" vertex="1" parent="1">
          <mxGeometry x="1523" y="27" width="100" height="621" as="geometry" />
        </mxCell>
        <mxCell id="riqvc8VG6ETdzrD3-sAb-27" style="edgeStyle=elbowEdgeStyle;curved=0;rounded=0;orthogonalLoop=1;jettySize=auto;html=1;elbow=vertical;fontSize=12;startSize=8;endSize=8;" edge="1" parent="1">
          <mxGeometry relative="1" as="geometry">
            <mxPoint x="1330" y="146.16" as="sourcePoint" />
            <mxPoint x="1450" y="146.16" as="targetPoint" />
            <Array as="points">
              <mxPoint x="1385" y="146.16" />
            </Array>
          </mxGeometry>
        </mxCell>
        <mxCell id="riqvc8VG6ETdzrD3-sAb-28" value="Добавление&lt;div&gt;в корзину&lt;/div&gt;" style="edgeLabel;html=1;align=center;verticalAlign=middle;resizable=0;points=[];fontSize=12;" vertex="1" connectable="0" parent="riqvc8VG6ETdzrD3-sAb-27">
          <mxGeometry x="0.1838" y="-3" relative="1" as="geometry">
            <mxPoint x="-15" y="-3" as="offset" />
          </mxGeometry>
        </mxCell>
        <mxCell id="riqvc8VG6ETdzrD3-sAb-29" style="edgeStyle=elbowEdgeStyle;curved=0;rounded=0;orthogonalLoop=1;jettySize=auto;html=1;elbow=vertical;fontSize=12;startSize=8;endSize=8;" edge="1" parent="1">
          <mxGeometry relative="1" as="geometry">
            <mxPoint x="1331" y="183" as="sourcePoint" />
            <mxPoint x="1451" y="183" as="targetPoint" />
            <Array as="points">
              <mxPoint x="1386" y="183" />
            </Array>
          </mxGeometry>
        </mxCell>
        <mxCell id="riqvc8VG6ETdzrD3-sAb-30" value="Подтверждение&lt;div&gt;заказа&lt;/div&gt;" style="edgeLabel;html=1;align=center;verticalAlign=middle;resizable=0;points=[];fontSize=12;" vertex="1" connectable="0" parent="riqvc8VG6ETdzrD3-sAb-29">
          <mxGeometry x="0.1838" y="-3" relative="1" as="geometry">
            <mxPoint x="-15" y="-4" as="offset" />
          </mxGeometry>
        </mxCell>
        <mxCell id="riqvc8VG6ETdzrD3-sAb-31" style="edgeStyle=elbowEdgeStyle;curved=0;rounded=0;orthogonalLoop=1;jettySize=auto;html=1;elbow=vertical;fontSize=12;startSize=8;endSize=8;" edge="1" source="riqvc8VG6ETdzrD3-sAb-35" target="riqvc8VG6ETdzrD3-sAb-48" parent="1">
          <mxGeometry relative="1" as="geometry">
            <Array as="points">
              <mxPoint x="1993" y="117.5" />
            </Array>
          </mxGeometry>
        </mxCell>
        <mxCell id="riqvc8VG6ETdzrD3-sAb-32" value="Вход в систему" style="edgeLabel;html=1;align=center;verticalAlign=middle;resizable=0;points=[];fontSize=12;" vertex="1" connectable="0" parent="riqvc8VG6ETdzrD3-sAb-31">
          <mxGeometry x="0.1838" y="-3" relative="1" as="geometry">
            <mxPoint x="-14" y="-3" as="offset" />
          </mxGeometry>
        </mxCell>
        <mxCell id="riqvc8VG6ETdzrD3-sAb-67" style="edgeStyle=elbowEdgeStyle;rounded=0;orthogonalLoop=1;jettySize=auto;html=1;elbow=vertical;curved=0;" edge="1" parent="1" source="riqvc8VG6ETdzrD3-sAb-35" target="riqvc8VG6ETdzrD3-sAb-48">
          <mxGeometry relative="1" as="geometry">
            <Array as="points">
              <mxPoint x="1998" y="266" />
            </Array>
          </mxGeometry>
        </mxCell>
        <mxCell id="riqvc8VG6ETdzrD3-sAb-68" value="Выбор и добавление&lt;div&gt;товара в корзину&lt;/div&gt;" style="edgeLabel;html=1;align=center;verticalAlign=middle;resizable=0;points=[];" vertex="1" connectable="0" parent="riqvc8VG6ETdzrD3-sAb-67">
          <mxGeometry x="-0.5161" y="3" relative="1" as="geometry">
            <mxPoint x="31" y="2" as="offset" />
          </mxGeometry>
        </mxCell>
        <mxCell id="riqvc8VG6ETdzrD3-sAb-79" style="edgeStyle=elbowEdgeStyle;rounded=0;orthogonalLoop=1;jettySize=auto;html=1;elbow=vertical;curved=0;" edge="1" parent="1" source="riqvc8VG6ETdzrD3-sAb-35" target="riqvc8VG6ETdzrD3-sAb-48">
          <mxGeometry relative="1" as="geometry">
            <Array as="points">
              <mxPoint x="1972" y="480" />
            </Array>
          </mxGeometry>
        </mxCell>
        <mxCell id="riqvc8VG6ETdzrD3-sAb-80" value="Онлайн оплата" style="edgeLabel;html=1;align=center;verticalAlign=middle;resizable=0;points=[];" vertex="1" connectable="0" parent="riqvc8VG6ETdzrD3-sAb-79">
          <mxGeometry x="0.1442" y="-2" relative="1" as="geometry">
            <mxPoint x="-10" y="-2" as="offset" />
          </mxGeometry>
        </mxCell>
        <mxCell id="riqvc8VG6ETdzrD3-sAb-83" style="edgeStyle=elbowEdgeStyle;rounded=0;orthogonalLoop=1;jettySize=auto;html=1;elbow=vertical;curved=0;" edge="1" parent="1" source="riqvc8VG6ETdzrD3-sAb-35" target="riqvc8VG6ETdzrD3-sAb-48">
          <mxGeometry relative="1" as="geometry">
            <Array as="points">
              <mxPoint x="1984" y="543" />
            </Array>
          </mxGeometry>
        </mxCell>
        <mxCell id="riqvc8VG6ETdzrD3-sAb-84" value="Отправка формы" style="edgeLabel;html=1;align=center;verticalAlign=middle;resizable=0;points=[];" vertex="1" connectable="0" parent="riqvc8VG6ETdzrD3-sAb-83">
          <mxGeometry x="-0.2824" y="3" relative="1" as="geometry">
            <mxPoint x="15" y="2" as="offset" />
          </mxGeometry>
        </mxCell>
        <mxCell id="riqvc8VG6ETdzrD3-sAb-35" value="Пользователь" style="shape=umlLifeline;perimeter=lifelinePerimeter;whiteSpace=wrap;html=1;container=1;dropTarget=0;collapsible=0;recursiveResize=0;outlineConnect=0;portConstraint=eastwest;newEdgeStyle={&quot;edgeStyle&quot;:&quot;elbowEdgeStyle&quot;,&quot;elbow&quot;:&quot;vertical&quot;,&quot;curved&quot;:0,&quot;rounded&quot;:0};" vertex="1" parent="1">
          <mxGeometry x="1860" y="23" width="100" height="1126" as="geometry" />
        </mxCell>
        <mxCell id="riqvc8VG6ETdzrD3-sAb-65" style="edgeStyle=elbowEdgeStyle;rounded=0;orthogonalLoop=1;jettySize=auto;html=1;elbow=horizontal;curved=0;dashed=1;" edge="1" parent="1" source="riqvc8VG6ETdzrD3-sAb-48" target="riqvc8VG6ETdzrD3-sAb-35">
          <mxGeometry relative="1" as="geometry">
            <Array as="points">
              <mxPoint x="1998" y="230" />
            </Array>
          </mxGeometry>
        </mxCell>
        <mxCell id="riqvc8VG6ETdzrD3-sAb-66" value="Успешно" style="edgeLabel;html=1;align=center;verticalAlign=middle;resizable=0;points=[];" vertex="1" connectable="0" parent="riqvc8VG6ETdzrD3-sAb-65">
          <mxGeometry x="0.2066" y="-1" relative="1" as="geometry">
            <mxPoint x="13" y="1" as="offset" />
          </mxGeometry>
        </mxCell>
        <mxCell id="riqvc8VG6ETdzrD3-sAb-69" value="Товар добавлен" style="edgeStyle=elbowEdgeStyle;rounded=0;orthogonalLoop=1;jettySize=auto;html=1;elbow=vertical;curved=0;dashed=1;" edge="1" parent="1">
          <mxGeometry relative="1" as="geometry">
            <mxPoint x="2059.05" y="348.47" as="sourcePoint" />
            <mxPoint x="1910.9973684210524" y="348.47" as="targetPoint" />
            <Array as="points">
              <mxPoint x="2043.5500000000002" y="348.47" />
              <mxPoint x="1994.55" y="307.47" />
            </Array>
          </mxGeometry>
        </mxCell>
        <mxCell id="riqvc8VG6ETdzrD3-sAb-70" style="edgeStyle=elbowEdgeStyle;rounded=0;orthogonalLoop=1;jettySize=auto;html=1;elbow=vertical;curved=0;" edge="1" parent="1">
          <mxGeometry relative="1" as="geometry">
            <mxPoint x="2059.9973684210527" y="286.0005263157896" as="sourcePoint" />
            <mxPoint x="2183.05" y="286.0005263157896" as="targetPoint" />
          </mxGeometry>
        </mxCell>
        <mxCell id="riqvc8VG6ETdzrD3-sAb-71" value="Проверка наличия" style="edgeLabel;html=1;align=center;verticalAlign=middle;resizable=0;points=[];" vertex="1" connectable="0" parent="riqvc8VG6ETdzrD3-sAb-70">
          <mxGeometry x="0.3422" y="2" relative="1" as="geometry">
            <mxPoint x="-21" y="2" as="offset" />
          </mxGeometry>
        </mxCell>
        <mxCell id="riqvc8VG6ETdzrD3-sAb-75" value="Товар не&lt;div&gt;добавлен&lt;/div&gt;" style="edgeStyle=elbowEdgeStyle;rounded=0;orthogonalLoop=1;jettySize=auto;html=1;elbow=vertical;curved=0;dashed=1;" edge="1" parent="1">
          <mxGeometry relative="1" as="geometry">
            <mxPoint x="2059.05" y="412.9968421052631" as="sourcePoint" />
            <mxPoint x="1910.9973684210524" y="412.9968421052631" as="targetPoint" />
          </mxGeometry>
        </mxCell>
        <mxCell id="riqvc8VG6ETdzrD3-sAb-81" style="edgeStyle=elbowEdgeStyle;rounded=0;orthogonalLoop=1;jettySize=auto;html=1;elbow=vertical;curved=0;dashed=1;" edge="1" parent="1" source="riqvc8VG6ETdzrD3-sAb-48">
          <mxGeometry relative="1" as="geometry">
            <mxPoint x="2059.9973684210527" y="626" as="sourcePoint" />
            <mxPoint x="2257" y="645" as="targetPoint" />
            <Array as="points">
              <mxPoint x="2182" y="645" />
            </Array>
          </mxGeometry>
        </mxCell>
        <mxCell id="riqvc8VG6ETdzrD3-sAb-87" value="Оплата" style="edgeLabel;html=1;align=center;verticalAlign=middle;resizable=0;points=[];" vertex="1" connectable="0" parent="riqvc8VG6ETdzrD3-sAb-81">
          <mxGeometry x="-0.495" y="2" relative="1" as="geometry">
            <mxPoint as="offset" />
          </mxGeometry>
        </mxCell>
        <mxCell id="riqvc8VG6ETdzrD3-sAb-82" value="Заполняет форму" style="edgeStyle=elbowEdgeStyle;rounded=0;orthogonalLoop=1;jettySize=auto;html=1;elbow=horizontal;curved=0;" edge="1" parent="1" source="riqvc8VG6ETdzrD3-sAb-48" target="riqvc8VG6ETdzrD3-sAb-35">
          <mxGeometry relative="1" as="geometry">
            <Array as="points">
              <mxPoint x="1979" y="509" />
            </Array>
          </mxGeometry>
        </mxCell>
        <mxCell id="riqvc8VG6ETdzrD3-sAb-94" style="edgeStyle=elbowEdgeStyle;rounded=0;orthogonalLoop=1;jettySize=auto;html=1;elbow=vertical;curved=0;" edge="1" parent="1" source="riqvc8VG6ETdzrD3-sAb-48" target="riqvc8VG6ETdzrD3-sAb-35">
          <mxGeometry relative="1" as="geometry">
            <Array as="points">
              <mxPoint x="2007" y="890" />
            </Array>
          </mxGeometry>
        </mxCell>
        <mxCell id="riqvc8VG6ETdzrD3-sAb-95" value="Платеж успешен" style="edgeLabel;html=1;align=center;verticalAlign=middle;resizable=0;points=[];" vertex="1" connectable="0" parent="riqvc8VG6ETdzrD3-sAb-94">
          <mxGeometry x="0.1828" y="-3" relative="1" as="geometry">
            <mxPoint x="12" as="offset" />
          </mxGeometry>
        </mxCell>
        <mxCell id="riqvc8VG6ETdzrD3-sAb-102" style="edgeStyle=elbowEdgeStyle;rounded=0;orthogonalLoop=1;jettySize=auto;html=1;elbow=vertical;curved=0;dashed=1;" edge="1" parent="1" source="riqvc8VG6ETdzrD3-sAb-48" target="riqvc8VG6ETdzrD3-sAb-35">
          <mxGeometry relative="1" as="geometry">
            <Array as="points">
              <mxPoint x="1991" y="972" />
            </Array>
          </mxGeometry>
        </mxCell>
        <mxCell id="riqvc8VG6ETdzrD3-sAb-103" value="Платеж неуспешен" style="edgeLabel;html=1;align=center;verticalAlign=middle;resizable=0;points=[];" vertex="1" connectable="0" parent="riqvc8VG6ETdzrD3-sAb-102">
          <mxGeometry x="0.0305" y="1" relative="1" as="geometry">
            <mxPoint as="offset" />
          </mxGeometry>
        </mxCell>
        <mxCell id="riqvc8VG6ETdzrD3-sAb-48" value="Система" style="shape=umlLifeline;perimeter=lifelinePerimeter;whiteSpace=wrap;html=1;container=1;dropTarget=0;collapsible=0;recursiveResize=0;outlineConnect=0;portConstraint=eastwest;newEdgeStyle={&quot;edgeStyle&quot;:&quot;elbowEdgeStyle&quot;,&quot;elbow&quot;:&quot;vertical&quot;,&quot;curved&quot;:0,&quot;rounded&quot;:0};" vertex="1" parent="1">
          <mxGeometry x="2008" y="24.5" width="100" height="1136.5" as="geometry" />
        </mxCell>
        <mxCell id="riqvc8VG6ETdzrD3-sAb-62" value="" style="html=1;points=[[0,0,0,0,5],[0,1,0,0,-5],[1,0,0,0,5],[1,1,0,0,-5]];perimeter=orthogonalPerimeter;outlineConnect=0;targetShapes=umlLifeline;portConstraint=eastwest;newEdgeStyle={&quot;curved&quot;:0,&quot;rounded&quot;:0};" vertex="1" parent="riqvc8VG6ETdzrD3-sAb-48">
          <mxGeometry x="45" y="135.55" width="10" height="40" as="geometry" />
        </mxCell>
        <mxCell id="riqvc8VG6ETdzrD3-sAb-63" value="Валидация" style="html=1;align=left;spacingLeft=2;endArrow=block;rounded=0;edgeStyle=orthogonalEdgeStyle;curved=0;rounded=0;" edge="1" target="riqvc8VG6ETdzrD3-sAb-62" parent="riqvc8VG6ETdzrD3-sAb-48">
          <mxGeometry relative="1" as="geometry">
            <mxPoint x="53" y="115.5" as="sourcePoint" />
            <Array as="points">
              <mxPoint x="78" y="145.55" />
            </Array>
          </mxGeometry>
        </mxCell>
        <mxCell id="riqvc8VG6ETdzrD3-sAb-85" value="" style="html=1;points=[[0,0,0,0,5],[0,1,0,0,-5],[1,0,0,0,5],[1,1,0,0,-5]];perimeter=orthogonalPerimeter;outlineConnect=0;targetShapes=umlLifeline;portConstraint=eastwest;newEdgeStyle={&quot;curved&quot;:0,&quot;rounded&quot;:0};" vertex="1" parent="riqvc8VG6ETdzrD3-sAb-48">
          <mxGeometry x="45" y="558.5" width="10" height="40" as="geometry" />
        </mxCell>
        <mxCell id="riqvc8VG6ETdzrD3-sAb-86" value="валидация" style="html=1;align=left;spacingLeft=2;endArrow=block;rounded=0;edgeStyle=orthogonalEdgeStyle;curved=0;rounded=0;" edge="1" target="riqvc8VG6ETdzrD3-sAb-85" parent="riqvc8VG6ETdzrD3-sAb-48">
          <mxGeometry relative="1" as="geometry">
            <mxPoint x="50" y="538.5" as="sourcePoint" />
            <Array as="points">
              <mxPoint x="80" y="568.5" />
            </Array>
          </mxGeometry>
        </mxCell>
        <mxCell id="riqvc8VG6ETdzrD3-sAb-92" style="edgeStyle=elbowEdgeStyle;rounded=0;orthogonalLoop=1;jettySize=auto;html=1;elbow=vertical;curved=0;dashed=1;" edge="1" parent="1" source="riqvc8VG6ETdzrD3-sAb-51" target="riqvc8VG6ETdzrD3-sAb-48">
          <mxGeometry relative="1" as="geometry">
            <Array as="points">
              <mxPoint x="2206" y="865" />
            </Array>
          </mxGeometry>
        </mxCell>
        <mxCell id="riqvc8VG6ETdzrD3-sAb-93" value="деньги списались" style="edgeLabel;html=1;align=center;verticalAlign=middle;resizable=0;points=[];" vertex="1" connectable="0" parent="riqvc8VG6ETdzrD3-sAb-92">
          <mxGeometry x="-0.4748" relative="1" as="geometry">
            <mxPoint as="offset" />
          </mxGeometry>
        </mxCell>
        <mxCell id="riqvc8VG6ETdzrD3-sAb-100" style="edgeStyle=elbowEdgeStyle;rounded=0;orthogonalLoop=1;jettySize=auto;html=1;elbow=vertical;curved=0;dashed=1;" edge="1" parent="1" source="riqvc8VG6ETdzrD3-sAb-51" target="riqvc8VG6ETdzrD3-sAb-48">
          <mxGeometry relative="1" as="geometry">
            <Array as="points">
              <mxPoint x="2167" y="939" />
            </Array>
          </mxGeometry>
        </mxCell>
        <mxCell id="riqvc8VG6ETdzrD3-sAb-101" value="деньги не&lt;div&gt;списались&lt;/div&gt;" style="edgeLabel;html=1;align=center;verticalAlign=middle;resizable=0;points=[];" vertex="1" connectable="0" parent="riqvc8VG6ETdzrD3-sAb-100">
          <mxGeometry x="-0.1599" relative="1" as="geometry">
            <mxPoint x="34" y="5" as="offset" />
          </mxGeometry>
        </mxCell>
        <mxCell id="riqvc8VG6ETdzrD3-sAb-51" value="Платежный&lt;div&gt;шлюз&lt;/div&gt;" style="shape=umlLifeline;perimeter=lifelinePerimeter;whiteSpace=wrap;html=1;container=1;dropTarget=0;collapsible=0;recursiveResize=0;outlineConnect=0;portConstraint=eastwest;newEdgeStyle={&quot;edgeStyle&quot;:&quot;elbowEdgeStyle&quot;,&quot;elbow&quot;:&quot;vertical&quot;,&quot;curved&quot;:0,&quot;rounded&quot;:0};" vertex="1" parent="1">
          <mxGeometry x="2259" y="623" width="100" height="641" as="geometry" />
        </mxCell>
        <mxCell id="riqvc8VG6ETdzrD3-sAb-88" value="" style="html=1;points=[[0,0,0,0,5],[0,1,0,0,-5],[1,0,0,0,5],[1,1,0,0,-5]];perimeter=orthogonalPerimeter;outlineConnect=0;targetShapes=umlLifeline;portConstraint=eastwest;newEdgeStyle={&quot;curved&quot;:0,&quot;rounded&quot;:0};" vertex="1" parent="riqvc8VG6ETdzrD3-sAb-51">
          <mxGeometry x="46" y="96" width="10" height="40" as="geometry" />
        </mxCell>
        <mxCell id="riqvc8VG6ETdzrD3-sAb-89" value="Валидация" style="html=1;align=left;spacingLeft=2;endArrow=block;rounded=0;edgeStyle=orthogonalEdgeStyle;curved=0;rounded=0;" edge="1" target="riqvc8VG6ETdzrD3-sAb-88" parent="riqvc8VG6ETdzrD3-sAb-51">
          <mxGeometry relative="1" as="geometry">
            <mxPoint x="51" y="76" as="sourcePoint" />
            <Array as="points">
              <mxPoint x="81" y="106" />
            </Array>
          </mxGeometry>
        </mxCell>
        <mxCell id="riqvc8VG6ETdzrD3-sAb-90" value="" style="html=1;points=[[0,0,0,0,5],[0,1,0,0,-5],[1,0,0,0,5],[1,1,0,0,-5]];perimeter=orthogonalPerimeter;outlineConnect=0;targetShapes=umlLifeline;portConstraint=eastwest;newEdgeStyle={&quot;curved&quot;:0,&quot;rounded&quot;:0};" vertex="1" parent="riqvc8VG6ETdzrD3-sAb-51">
          <mxGeometry x="46" y="183" width="10" height="40" as="geometry" />
        </mxCell>
        <mxCell id="riqvc8VG6ETdzrD3-sAb-91" value="Формирование платежа" style="html=1;align=left;spacingLeft=2;endArrow=block;rounded=0;edgeStyle=orthogonalEdgeStyle;curved=0;rounded=0;" edge="1" target="riqvc8VG6ETdzrD3-sAb-90" parent="riqvc8VG6ETdzrD3-sAb-51">
          <mxGeometry relative="1" as="geometry">
            <mxPoint x="51" y="163" as="sourcePoint" />
            <Array as="points">
              <mxPoint x="81" y="193" />
            </Array>
          </mxGeometry>
        </mxCell>
        <mxCell id="riqvc8VG6ETdzrD3-sAb-73" value="Товар в наличии" style="edgeStyle=elbowEdgeStyle;rounded=0;orthogonalLoop=1;jettySize=auto;html=1;elbow=vertical;curved=0;dashed=1;" edge="1" parent="1">
          <mxGeometry relative="1" as="geometry">
            <mxPoint x="2181.05" y="315.0005263157896" as="sourcePoint" />
            <mxPoint x="2057.9973684210527" y="315.0005263157896" as="targetPoint" />
          </mxGeometry>
        </mxCell>
        <mxCell id="riqvc8VG6ETdzrD3-sAb-74" value="Товара нет" style="edgeStyle=elbowEdgeStyle;rounded=0;orthogonalLoop=1;jettySize=auto;html=1;elbow=vertical;curved=0;dashed=1;" edge="1" parent="1" source="riqvc8VG6ETdzrD3-sAb-56" target="riqvc8VG6ETdzrD3-sAb-48">
          <mxGeometry relative="1" as="geometry">
            <Array as="points">
              <mxPoint x="2112" y="382" />
            </Array>
          </mxGeometry>
        </mxCell>
        <mxCell id="riqvc8VG6ETdzrD3-sAb-56" value="Склад" style="shape=umlLifeline;perimeter=lifelinePerimeter;whiteSpace=wrap;html=1;container=1;dropTarget=0;collapsible=0;recursiveResize=0;outlineConnect=0;portConstraint=eastwest;newEdgeStyle={&quot;edgeStyle&quot;:&quot;elbowEdgeStyle&quot;,&quot;elbow&quot;:&quot;vertical&quot;,&quot;curved&quot;:0,&quot;rounded&quot;:0};" vertex="1" parent="1">
          <mxGeometry x="2131" y="24.5" width="100" height="1127.5" as="geometry" />
        </mxCell>
        <mxCell id="riqvc8VG6ETdzrD3-sAb-72" value="alt" style="shape=umlFrame;whiteSpace=wrap;html=1;pointerEvents=0;" vertex="1" parent="1">
          <mxGeometry x="1854" y="237.5" width="359" height="200" as="geometry" />
        </mxCell>
        <mxCell id="riqvc8VG6ETdzrD3-sAb-76" value="" style="line;strokeWidth=1;fillColor=#f8cecc;align=left;verticalAlign=middle;spacingTop=-1;spacingLeft=3;spacingRight=3;rotatable=0;labelPosition=right;points=[];portConstraint=eastwest;strokeColor=#b85450;dashed=1;" vertex="1" parent="1">
          <mxGeometry x="1851" y="366" width="364" height="8" as="geometry" />
        </mxCell>
        <mxCell id="riqvc8VG6ETdzrD3-sAb-96" value="loop=5" style="shape=umlFrame;whiteSpace=wrap;html=1;pointerEvents=0;fillColor=#fff2cc;strokeColor=#d6b656;" vertex="1" parent="1">
          <mxGeometry x="2211" y="768" width="271" height="82" as="geometry" />
        </mxCell>
        <mxCell id="riqvc8VG6ETdzrD3-sAb-98" value="alt" style="shape=umlFrame;whiteSpace=wrap;html=1;pointerEvents=0;" vertex="1" parent="1">
          <mxGeometry x="1884" y="623" width="615" height="500" as="geometry" />
        </mxCell>
        <mxCell id="riqvc8VG6ETdzrD3-sAb-99" value="" style="line;strokeWidth=1;fillColor=#f8cecc;align=left;verticalAlign=middle;spacingTop=-1;spacingLeft=3;spacingRight=3;rotatable=0;labelPosition=right;points=[];portConstraint=eastwest;strokeColor=#b85450;dashed=1;" vertex="1" parent="1">
          <mxGeometry x="1884" y="907" width="618" height="8" as="geometry" />
        </mxCell>
      </root>
    </mxGraphModel>
  </diagram>
</mxfile>
